<svg aria-hidden="true" style="position:absolute;width:0;height:0" xmlns="http://www.w3.org/2000/svg" overflow="hidden"><defs><symbol id="icon-location" viewBox="0 0 20 20"><path d="M19.367 18.102L18 14h-1.5l.833 4H2.667l.833-4H2L.632 18.102C.285 19.146.9 20 2 20h16c1.1 0 1.715-.854 1.367-1.898zM15 5A5 5 0 105 5c0 4.775 5 10 5 10s5-5.225 5-10zm-7.7.06c0-1.491 1.208-2.699 2.7-2.699a2.699 2.699 0 110 5.399 2.7 2.7 0 01-2.7-2.7z"/></symbol><symbol id="icon-phone" viewBox="0 0 24 28"><path d="M20 18.641c0-.078 0-.172-.031-.25-.094-.281-2.375-1.437-2.812-1.687-.297-.172-.656-.516-1.016-.516-.688 0-1.703 2.047-2.312 2.047-.313 0-.703-.281-.984-.438-2.063-1.156-3.484-2.578-4.641-4.641-.156-.281-.438-.672-.438-.984 0-.609 2.047-1.625 2.047-2.312 0-.359-.344-.719-.516-1.016-.25-.438-1.406-2.719-1.687-2.812-.078-.031-.172-.031-.25-.031-.406 0-1.203.187-1.578.344-1.031.469-1.781 2.438-1.781 3.516 0 1.047.422 2 .781 2.969 1.25 3.422 4.969 7.141 8.391 8.391.969.359 1.922.781 2.969.781 1.078 0 3.047-.75 3.516-1.781.156-.375.344-1.172.344-1.578zM24 6.5v15c0 2.484-2.016 4.5-4.5 4.5h-15A4.502 4.502 0 010 21.5v-15C0 4.016 2.016 2 4.5 2h15C21.984 2 24 4.016 24 6.5z"/></symbol><symbol id="icon-slack" viewBox="0 0 32 32"><path fill="var(--color1, #4a154b)" d="M6.723 20.22a3.37 3.37 0 01-3.359 3.364h-.001A3.371 3.371 0 010 20.22a3.37 3.37 0 013.362-3.36h3.36zm1.694 0a3.37 3.37 0 013.361-3.36 3.37 3.37 0 013.361 3.36v8.418a3.372 3.372 0 01-3.361 3.363h-.001a3.37 3.37 0 01-3.361-3.362zm3.362-13.497a3.37 3.37 0 01-3.361-3.359v-.001A3.372 3.372 0 0111.779 0h.001a3.37 3.37 0 013.361 3.362v3.36zm0 1.694a3.37 3.37 0 013.361 3.361v.001a3.37 3.37 0 01-3.361 3.361H3.363A3.372 3.372 0 010 11.779v-.001a3.37 3.37 0 013.362-3.361zm13.496 3.362a3.37 3.37 0 013.362-3.361A3.372 3.372 0 0132 11.779v.001a3.37 3.37 0 01-3.362 3.361h-3.363zm-1.691 0a3.37 3.37 0 01-3.364 3.361 3.37 3.37 0 01-3.36-3.361V3.363A3.37 3.37 0 0120.22 0a3.371 3.371 0 013.364 3.362zM20.22 25.275a3.371 3.371 0 013.364 3.362A3.371 3.371 0 0120.22 32a3.37 3.37 0 01-3.36-3.362v-3.363zm0-1.691a3.37 3.37 0 01-3.36-3.364 3.369 3.369 0 013.36-3.36h8.418a3.37 3.37 0 013.363 3.36 3.371 3.371 0 01-3.362 3.364z"/></symbol><symbol id="icon-location1" viewBox="0 0 32 32"><path d="M16 0C10.477 0 6 4.477 6 10c0 10 10 22 10 22s10-12 10-22c0-5.523-4.477-10-10-10zm0 16a6 6 0 110-12 6 6 0 010 12z"/></symbol><symbol id="icon-link" viewBox="0 0 32 32"><path d="M13.757 19.868a1.62 1.62 0 01-1.149-.476c-2.973-2.973-2.973-7.81 0-10.783l6-6C20.048 1.169 21.963.376 24 .376s3.951.793 5.392 2.233c2.973 2.973 2.973 7.81 0 10.783l-2.743 2.743a1.624 1.624 0 11-2.298-2.298l2.743-2.743a4.38 4.38 0 000-6.187c-.826-.826-1.925-1.281-3.094-1.281s-2.267.455-3.094 1.281l-6 6a4.38 4.38 0 000 6.187 1.624 1.624 0 01-1.149 2.774z"/><path d="M8 31.625a7.575 7.575 0 01-5.392-2.233c-2.973-2.973-2.973-7.81 0-10.783l2.743-2.743a1.624 1.624 0 112.298 2.298l-2.743 2.743a4.38 4.38 0 000 6.187c.826.826 1.925 1.281 3.094 1.281s2.267-.455 3.094-1.281l6-6a4.38 4.38 0 000-6.187 1.624 1.624 0 112.298-2.298c2.973 2.973 2.973 7.81 0 10.783l-6 6A7.575 7.575 0 018 31.625z"/></symbol><symbol id="icon-radio-unchecked" viewBox="0 0 32 32"><path d="M16 0C7.163 0 0 7.163 0 16s7.163 16 16 16 16-7.163 16-16S24.837 0 16 0zm0 28C9.373 28 4 22.627 4 16S9.373 4 16 4s12 5.373 12 12-5.373 12-12 12z"/></symbol><symbol id="icon-mail" viewBox="0 0 32 32"><path d="M26.666 0H5.334C2.4 0 0 2.4 0 5.333v21.333C0 29.6 2.4 32 5.334 32h21.332C29.602 32 32 29.6 32 26.666V5.333C32 2.399 29.602 0 26.666 0zM8 8h16c.286 0 .563.061.817.177L16 18.463 7.183 8.176c.254-.116.531-.177.817-.177zM6 22V10c0-.042.002-.084.004-.125l5.864 6.842-5.8 5.8A1.983 1.983 0 015.999 22zm18 2H8c-.177 0-.35-.024-.517-.069l5.691-5.691L16 21.537l2.826-3.297 5.691 5.691c-.167.045-.34.069-.517.069zm2-2c0 .177-.024.35-.069.517l-5.8-5.8 5.864-6.842c.003.041.004.083.004.125v12z"/></symbol><symbol id="icon-facebook" viewBox="0 0 32 32"><path d="M29 0H3C1.35 0 0 1.35 0 3v26c0 1.65 1.35 3 3 3h13V18h-4v-4h4v-2c0-3.306 2.694-6 6-6h4v4h-4c-1.1 0-2 .9-2 2v2h6l-1 4h-5v14h9c1.65 0 3-1.35 3-3V3c0-1.65-1.35-3-3-3z"/></symbol><symbol id="icon-telegram" viewBox="0 0 32 32"><path d="M16 0C7.162 0 0 7.162 0 16s7.162 16 16 16 16-7.163 16-16S24.837 0 16 0zm7.863 10.969l-2.625 12.369c-.181.881-.712 1.087-1.45.681l-4-2.956-1.919 1.869c-.225.219-.4.4-.8.4-.519 0-.431-.194-.606-.688L11.1 18.169l-3.956-1.231c-.856-.262-.862-.85.194-1.269l15.412-5.95c.7-.319 1.381.169 1.113 1.25z"/></symbol><symbol id="icon-github" viewBox="0 0 32 32"><path d="M16 .395c-8.836 0-16 7.163-16 16 0 7.069 4.585 13.067 10.942 15.182.8.148 1.094-.347 1.094-.77 0-.381-.015-1.642-.022-2.979-4.452.968-5.391-1.888-5.391-1.888-.728-1.849-1.776-2.341-1.776-2.341-1.452-.993.11-.973.11-.973 1.606.113 2.452 1.649 2.452 1.649 1.427 2.446 3.743 1.739 4.656 1.33.143-1.034.558-1.74 1.016-2.14-3.554-.404-7.29-1.777-7.29-7.907 0-1.747.625-3.174 1.649-4.295-.166-.403-.714-2.03.155-4.234 0 0 1.344-.43 4.401 1.64a15.353 15.353 0 014.005-.539c1.359.006 2.729.184 4.008.539 3.054-2.07 4.395-1.64 4.395-1.64.871 2.204.323 3.831.157 4.234 1.026 1.12 1.647 2.548 1.647 4.295 0 6.145-3.743 7.498-7.306 7.895.574.497 1.085 1.47 1.085 2.963 0 2.141-.019 3.864-.019 4.391 0 .426.288.925 1.099.768C27.421 29.457 32 23.462 32 16.395c0-8.837-7.164-16-16-16z"/></symbol><symbol id="icon-linkedin" viewBox="0 0 32 32"><path d="M29 0H3C1.35 0 0 1.35 0 3v26c0 1.65 1.35 3 3 3h26c1.65 0 3-1.35 3-3V3c0-1.65-1.35-3-3-3zM12 26H8V12h4v14zm-2-16c-1.106 0-2-.894-2-2s.894-2 2-2c1.106 0 2 .894 2 2s-.894 2-2 2zm16 16h-4v-8c0-1.106-.894-2-2-2s-2 .894-2 2v8h-4V12h4v2.481C18.825 13.35 20.087 12 21.5 12c2.488 0 4.5 2.238 4.5 5v9z"/></symbol></defs></svg>